#!OML:ASF X:\für Bonn\!DataBase\2005_08_10_Bjorn_Final\c3d\bjorn.ASF
:FULLY-SPECIFIED
:DEGREES
141
root 10.1044 7.94916 0.636041 -242.339 83.925 -229.951
lowerback 44.3348 -4.23301 9.14201
upperback 22.6839 2.98423 2.00644
thorax 5.21385 4.16402 -3.15097
lowerneck -8.5584 -9.51008 3.35229
upperneck 12.1176 -13.0333 -0.421815
head 4.79456 -6.19889 -1.48323
rclavicle 5.08889e-014 3.18055e-014
rhumerus 22.9385 -14.44 -71.2936
rradius 22.1963
rwrist 9.65499
rhand -44.3004 33.4011
rfingers 7.12502
rthumb -17.1103 4.13456
lclavicle 5.08889e-014 3.18055e-014
lhumerus 6.89777 -36.0058 71.1094
lradius 39.8691
lwrist -14.3157
lhand -22.9953 -13.4993
lfingers 7.12502
lthumb 3.44762 16.4526
rfemur -176.721 67.0308 70.8877
rtibia 207.085
rfoot -120.19 93.218
rtoes -9.52273
lfemur -96.9336 62.9664 -30.6876
ltibia 150.646
lfoot -31.2798 -31.0114
ltoes -19.1032
142
root 10.1176 7.92808 0.626274 -242.41 84.0248 -229.938
lowerback 44.38 -4.30874 9.28464
upperback 22.677 2.95492 2.01367
thorax 5.20228 4.16379 -3.20353
lowerneck -8.46733 -9.51614 3.43843
upperneck 12.1644 -13.0303 -0.544632
head 4.77968 -6.19955 -1.52793
rclavicle 6.04305e-014 3.65764e-014
rhumerus 22.7667 -14.5504 -71.5122
rradius 22.2066
rwrist 9.93069
rhand -44.892 34.1873
rfingers 7.12502
rthumb -17.6797 4.97106
lclavicle 6.04305e-014 3.65764e-014
lhumerus 6.42858 -36.3423 71.5155
lradius 39.5791
lwrist -14.8489
lhand -22.7922 -13.714
lfingers 7.12502
lthumb 3.64381 16.2346
rfemur -176.82 66.9588 70.4763
rtibia 207.028
rfoot -125.828 93.3304
rtoes -9.58156
lfemur -97.2101 63.8305 -30.7857
ltibia 150.878
lfoot -31.6847 -31.0949
ltoes -19.5564
143
root 10.1319 7.90848 0.616749 -242.469 84.1011 -229.924
lowerback 44.3561 -4.37015 9.37352
upperback 22.7282 2.92162 2.04359
thorax 5.27018 4.16207 -3.19909
lowerneck -8.41904 -9.50332 3.466
upperneck 12.1578 -13.0058 -0.603683
head 4.76412 -6.19023 -1.54487
rclavicle 2.22639e-014 2.22639e-014
rhumerus 22.6572 -14.5782 -71.649
rradius 22.2476
rwrist 10.1366
rhand -45.4435 34.7958
rfingers 7.12502
rthumb -18.2104 5.62822
lclavicle 2.22639e-014 2.22639e-014
lhumerus 6.00902 -36.6548 71.8942
lradius 39.3698
lwrist -15.324
lhand -22.6215 -13.8357
lfingers 7.12502
lthumb 3.80866 16.11
rfemur -176.83 66.9015 70.1465
rtibia 206.986
rfoot -133.193 93.3162
rtoes -9.49507
lfemur -97.447 64.759 -30.9164
ltibia 151.094
lfoot -32.2199 -31.1317
ltoes -20.0958
144
root 10.1444 7.89114 0.607277 -242.737 84.1439 -230.12
lowerback 44.3536 -4.43219 9.44084
upperback 22.7718 2.88112 2.04751
thorax 5.32287 4.15628 -3.2108
lowerneck -8.37526 -9.48494 3.53025
upperneck 12.1722 -12.9765 -0.681723
head 4.75225 -6.17733 -1.5734
rclavicle 6.36111e-015 1.59028e-015
rhumerus 22.5744 -14.6996 -71.8694
rradius 22.255
rwrist 10.4635
rhand -45.9494 35.4596
rfingers 7.12502
rthumb -18.697 6.33812
lclavicle 6.36111e-015 1.59028e-015
lhumerus 5.62012 -37.0919 72.1686
lradius 39.2551
lwrist -15.6276
lhand -22.472 -13.7287
lfingers 7.12502
lthumb 3.95302 16.2144
rfemur -176.635 66.8535 70.0167
rtibia 206.96
rfoot -139.398 93.3793
rtoes -9.38843
lfemur -97.6081 65.4452 -31.0352
ltibia 151.281
lfoot -32.6303 -31.089
ltoes -20.5068
145
root 10.1569 7.87608 0.597786 -243.119 84.1491 -230.465
lowerback 44.3218 -4.46772 9.44904
upperback 22.8206 2.84506 2.0697
thorax 5.38405 4.14431 -3.17532
lowerneck -8.31941 -9.4572 3.56982
upperneck 12.1428 -12.9359 -0.721404
head 4.7294 -6.15921 -1.58433
rclavicle 6.67916e-014 4.45278e-014
rhumerus 22.5066 -14.8393 -72.0768
rradius 22.2629
rwrist 10.7827
rhand -46.4221 36.1677
rfingers 7.12502
rthumb -19.1516 7.09067
lclavicle 6.67916e-014 4.45278e-014
lhumerus 5.24731 -37.5328 72.457
lradius 39.1367
lwrist -15.9089
lhand -22.3905 -13.6098
lfingers 7.12502
lthumb 4.03171 16.3318
rfemur -176.526 66.8462 69.7754
rtibia 206.935
rfoot -144.548 93.4616
rtoes -9.4026
lfemur -97.7796 65.9836 -31.2252
ltibia 151.449
lfoot -32.9801 -30.9876
ltoes -20.9739
146
root 10.1701 7.8629 0.587938 -243.458 84.195 -230.817
lowerback 44.2457 -4.49736 9.51637
upperback 22.8587 2.82588 2.09523
thorax 5.44949 4.14365 -3.17055
lowerneck -8.26632 -9.44817 3.58558
upperneck 12.1358 -12.9186 -0.748703
head 4.71587 -6.15178 -1.59043
rclavicle -3.18055e-015 6.04305e-014
rhumerus 22.3949 -14.9429 -72.2205
rradius 22.3103
rwrist 11.0348
rhand -46.8507 36.735
rfingers 7.12502
rthumb -19.5637 7.69932
lclavicle -3.18055e-015 6.04305e-014
lhumerus 4.87567 -38.0387 72.726
lradius 39.0878
lwrist -16.0837
lhand -22.3077 -13.5065
lfingers 7.12502
lthumb 4.11164 16.4336
rfemur -176.225 66.9042 69.8338
rtibia 206.922
rfoot -149.65 93.4911
rtoes -9.33324
lfemur -98.1012 66.5508 -31.5102
ltibia 151.615
lfoot -33.3415 -30.8952
ltoes -21.2971
147
root 10.1823 7.85243 0.578838 -243.654 84.2356 -231.063
lowerback 44.1343 -4.52366 9.55321
upperback 22.9108 2.79471 2.13108
thorax 5.53617 4.13367 -3.13507
lowerneck -8.24287 -9.41441 3.60837
upperneck 12.1098 -12.8674 -0.807246
head 4.69945 -6.13031 -1.60588
rclavicle 3.18055e-015 4.77083e-014
rhumerus 22.3098 -14.9692 -72.3347
rradius 22.3735
rwrist 11.2056
rhand -47.2703 37.2773
rfingers 7.12502
rthumb -19.9671 8.28314
lclavicle 3.18055e-015 4.77083e-014
lhumerus 4.49192 -38.452 73.0218
lradius 39.0542
lwrist -16.2534
lhand -22.2144 -13.4432
lfingers 7.12502
lthumb 4.20169 16.4951
rfemur -175.876 67.0091 69.9838
rtibia 206.921
rfoot -155.967 93.4416
rtoes -9.1401
lfemur -98.45 66.938 -31.8246
ltibia 151.751
lfoot -33.5992 -30.7768
ltoes -21.7033
148
root 10.1947 7.84316 0.56881 -243.982 84.2797 -231.425
lowerback 44.0628 -4.55518 9.61184
upperback 22.9346 2.76696 2.15146
thorax 5.5826 4.12546 -3.13042
lowerneck -8.14185 -9.39931 3.62321
upperneck 12.0771 -12.8412 -0.817617
head 4.67156 -6.11834 -1.60288
rclavicle 5.40694e-014 4.45278e-014
rhumerus 22.1846 -15.0361 -72.4595
rradius 22.4086
rwrist 11.4044
rhand -47.6368 37.872
rfingers 7.12502
rthumb -20.3194 8.9149
lclavicle 5.40694e-014 4.45278e-014
lhumerus 4.07056 -38.986 73.2788
lradius 39.0878
lwrist -16.2739
lhand -22.1433 -13.3567
lfingers 7.12502
lthumb 4.27035 16.5803
rfemur -175.492 67.0873 70.1876
rtibia 206.929
rfoot -161.794 93.4697
rtoes -8.99486
lfemur -98.7162 67.3784 -32.0943
ltibia 151.896
lfoot -33.9554 -30.5715
ltoes -22.1875
149
root 10.2063 7.83648 0.559136 -244.026 84.3376 -231.514
lowerback 44.002 -4.5864 9.68043
upperback 22.956 2.74671 2.19628
thorax 5.62415 4.11948 -3.1068
lowerneck -8.10688 -9.38004 3.61998
upperneck 12.0766 -12.8113 -0.826174
head 4.66588 -6.10413 -1.60138
rclavicle 8.5875e-014 3.49861e-014
rhumerus 22.0842 -15.1538 -72.581
rradius 22.4125
rwrist 11.6696
rhand -47.9926 38.4559
rfingers 7.12502
rthumb -20.6613 9.53562
lclavicle 8.5875e-014 3.49861e-014
lhumerus 3.64745 -39.4507 73.5742
lradius 39.146
lwrist -16.2352
lhand -21.9631 -13.3091
lfingers 7.12502
lthumb 4.44443 16.6243
rfemur -175.289 67.1634 70.2883
rtibia 206.935
rfoot -162.86 93.5809
rtoes -9.30477
lfemur -98.9916 67.6867 -32.3177
ltibia 152.017
lfoot -34.1132 -30.5122
ltoes -22.3424
150
root 10.2176 7.8319 0.549263 -244.159 84.3976 -231.659
lowerback 43.9935 -4.63237 9.75043
upperback 22.9679 2.7181 2.23464
thorax 5.64115 4.1096 -3.0893
lowerneck -8.05123 -9.35166 3.59705
upperneck 12.0859 -12.7628 -0.854326
head 4.66007 -6.08236 -1.60101
rclavicle -1.90833e-014 -2.38542e-014
rhumerus 21.9285 -15.2123 -72.662
rradius 22.466
rwrist 11.8732
rhand -48.2998 39.0106
rfingers 7.12502
rthumb -20.9565 10.1227
lclavicle -1.90833e-014 -2.38542e-014
lhumerus 3.18945 -39.89 73.8825
lradius 39.2373
lwrist -16.0762
lhand -21.7069 -13.3097
lfingers 7.12502
lthumb 4.69176 16.6183
rfemur -174.949 67.1972 70.5608
rtibia 206.97
rfoot -168.872 93.5764
rtoes -8.91158
lfemur -99.1146 68.1204 -32.4414
ltibia 152.114
lfoot -34.3349 -30.5061
ltoes -22.4136
